<?xml version="1.0" encoding="UTF-8" standalone="no"?>
<!-- Created with Inkscape (http://www.inkscape.org/) -->

<svg
   xmlns:dc="http://purl.org/dc/elements/1.1/"
   xmlns:cc="http://creativecommons.org/ns#"
   xmlns:rdf="http://www.w3.org/1999/02/22-rdf-syntax-ns#"
   xmlns:svg="http://www.w3.org/2000/svg"
   xmlns="http://www.w3.org/2000/svg"
   xmlns:sodipodi="http://sodipodi.sourceforge.net/DTD/sodipodi-0.dtd"
   xmlns:inkscape="http://www.inkscape.org/namespaces/inkscape"
   id="svg2816"
   version="1.1"
   inkscape:version="0.91 r13725"
   width="94"
   height="128"
   sodipodi:docname="pin.svg">
  <metadata
     id="metadata2822">
    <rdf:RDF>
      <cc:Work
         rdf:about="">
        <dc:format>image/svg+xml</dc:format>
        <dc:type
           rdf:resource="http://purl.org/dc/dcmitype/StillImage" />
      </cc:Work>
    </rdf:RDF>
  </metadata>
  <defs
     id="defs2820">
    <inkscape:perspective
       sodipodi:type="inkscape:persp3d"
       inkscape:vp_x="0 : 0.5 : 1"
       inkscape:vp_y="0 : 1000 : 0"
       inkscape:vp_z="1 : 0.5 : 1"
       inkscape:persp3d-origin="0.5 : 0.33333333 : 1"
       id="perspective2824" />
  </defs>
  <sodipodi:namedview
     pagecolor="#ffffff"
     bordercolor="#666666"
     borderopacity="1"
     objecttolerance="10"
     gridtolerance="10"
     guidetolerance="10"
     inkscape:pageopacity="0"
     inkscape:pageshadow="2"
     inkscape:window-width="1920"
     inkscape:window-height="1143"
     id="namedview2818"
     showgrid="false"
     inkscape:zoom="8"
     inkscape:cx="19.924305"
     inkscape:cy="17.435147"
     inkscape:window-x="1920"
     inkscape:window-y="0"
     inkscape:window-maximized="1"
     inkscape:current-layer="svg2816" />
  <path
     style="fill:#c64242;fill-opacity:0.98823529"
     d="M 46.977003,124.81803 C 46.693972,124.13053 40.813862,118.38036 36.603071,113.15536 11.655836,80.03306 -16.158365,49.257593 16.319943,11.857525 30.700637,-2.0361457 48.43303,-2.8287347 66.662563,3.6473853 117.9922,33.349289 80.828906,81.802602 56.427079,113.65536 l -9.450076,11.16267 z M 62.417383,74.046734 C 96.654166,49.562133 70.185413,2.4138693 32.569429,18.087701 21.585178,23.94456 16.134954,34.135235 15.944071,46.155352 c -0.524495,11.693153 5.685418,21.471037 15.526227,27.460808 7.055481,3.840074 10.157178,4.533661 18.145697,4.057654 5.177622,-0.308516 8.161127,-1.153847 12.801388,-3.62708 z"
     id="path4127"
     sodipodi:nodetypes="ccccccccccsc"
     inkscape:connector-curvature="0" />
  <path
     sodipodi:type="arc"
     style="fill:#c64242;fill-opacity:0.98823529;fill-rule:nonzero;stroke:none"
     id="path4129"
     sodipodi:cx="46.545456"
     sodipodi:cy="46.606098"
     sodipodi:rx="44.988735"
     sodipodi:ry="43.921158"
     d="M 37.163924,89.561686 A 44.988735,43.921158 0 0 1 2.4870373,37.720322 44.988735,43.921158 0 0 1 55.367077,3.5375871 44.988735,43.921158 0 0 1 90.715983,54.944544 44.988735,43.921158 0 0 1 38.28517,89.780577"
     sodipodi:start="1.7808687"
     sodipodi:end="1.7554518"
     sodipodi:open="true" />
  <path
     sodipodi:type="arc"
     style="opacity:0.34016395;fill:#000000;fill-opacity:0;fill-rule:nonzero;stroke:none"
     id="path4131"
     sodipodi:cx="49.700603"
     sodipodi:cy="50.59893"
     sodipodi:rx="26.010695"
     sodipodi:ry="20.991087"
     d="M 44.276576,71.128546 A 26.010695,20.991087 0 0 1 24.227781,46.352182 26.010695,20.991087 0 0 1 54.800913,30.015346 26.010695,20.991087 0 0 1 75.238243,54.584095 26.010695,20.991087 0 0 1 44.924835,71.23316"
     sodipodi:start="1.7808687"
     sodipodi:end="1.7554518"
     sodipodi:open="true" />
  <path
     sodipodi:type="arc"
     style="fill:#000080;fill-opacity:0;fill-rule:nonzero;stroke:none"
     id="path4135"
     sodipodi:cx="36.010761"
     sodipodi:cy="104.78788"
     sodipodi:rx="16.655972"
     sodipodi:ry="11.750445"
     d="M 32.53748,116.28 A 16.655972,11.750445 0 0 1 19.699217,102.41062 16.655972,11.750445 0 0 1 39.276749,93.265547 16.655972,11.750445 0 0 1 52.363811,107.01871 16.655972,11.750445 0 0 1 32.952594,116.33856"
     sodipodi:start="1.7808687"
     sodipodi:end="1.7554518"
     sodipodi:open="true" />
  <path
     sodipodi:type="arc"
     style="fill:#b72c2c;fill-opacity:1;fill-rule:nonzero;stroke:none"
     id="path4149"
     sodipodi:cx="47.076721"
     sodipodi:cy="49.686291"
     sodipodi:rx="33.426235"
     sodipodi:ry="34.452595"
     d="M 40.106326,83.381474 A 33.426235,34.452595 0 0 1 14.341703,42.716118 33.426235,34.452595 0 0 1 53.631108,15.902528 33.426235,34.452595 0 0 1 79.895035,56.227127 33.426235,34.452595 0 0 1 40.939401,83.553176"
     sodipodi:start="1.7808687"
     sodipodi:end="1.7554518"
     sodipodi:open="true" />
  <path
     sodipodi:type="arc"
     style="fill:#ffffff;fill-opacity:1;fill-rule:nonzero;stroke:none"
     id="path4184"
     sodipodi:cx="46.626194"
     sodipodi:cy="49.331562"
     sodipodi:rx="22.105564"
     sodipodi:ry="22.589687"
     d="M 42.016506,71.424634 A 22.105564,22.589687 0 0 1 24.977748,44.761398 22.105564,22.589687 0 0 1 50.960766,27.180411 22.105564,22.589687 0 0 1 68.329725,53.620222 22.105564,22.589687 0 0 1 42.567438,71.537215"
     sodipodi:start="1.7808687"
     sodipodi:end="1.7554518"
     sodipodi:open="true" />
  <path
     style="display:none;opacity:0.99603176;fill:#c600ff;fill-opacity:0.98823529;stroke:none;stroke-opacity:1"
     id="refPoint"
     sodipodi:type="arc"
     sodipodi:cx="47.003029"
     sodipodi:cy="124.76297"
     sodipodi:rx="0.16495192"
     sodipodi:ry="0.15045984"
     sodipodi:start="1.7808642"
     sodipodi:end="1.7554522"
     sodipodi:open="true"
     d="m 46.968632,124.91012 a 0.16495192,0.15045984 0 0 1 -0.127144,-0.17759 0.16495192,0.15045984 0 0 1 0.193885,-0.1171 0.16495192,0.15045984 0 0 1 0.129608,0.1761 0.16495192,0.15045984 0 0 1 -0.192239,0.11934"
     inkscape:label="#path4139" />
</svg>
