<?xml version="1.0" encoding="utf-8"?>
<!-- Svg Vector Icons : http://www.onlinewebfonts.com/icon -->
<!DOCTYPE svg PUBLIC "-//W3C//DTD SVG 1.1//EN" "http://www.w3.org/Graphics/SVG/1.1/DTD/svg11.dtd">
<svg version="1.1" xmlns="http://www.w3.org/2000/svg" xmlns:xlink="http://www.w3.org/1999/xlink" x="0px" y="0px" viewBox="0 0 1000 1000" enable-background="new 0 0 1000 1000" xml:space="preserve">
<metadata> Svg Vector Icons : http://www.onlinewebfonts.com/icon </metadata>
<g><g transform="translate(0.000000,511.000000) scale(0.100000,-0.100000)"><path d="M658,4988.3c0-24.1,1417.6-7642.3,1429.6-7678.5c4.8-9.6,460.5,352,1015,805.2c556.9,458,1015,817.3,1027,805.2c9.6-12.1,732.9-851,1603.2-1866C6605.5-3960.7,7331.2-4790,7348.1-4790c53,0,2013,1704.5,1993.8,1735.8c-9.7,14.5-732.9,860.7-1608,1880.4C6858.7-156.4,6142.7,685,6142.7,694.6c0,9.6,431.5,407.4,959.5,882.4l961.9,863.1l-154.3,53c-84.4,28.9-1743,607.5-3691,1285C2273.3,4455.5,677.3,5010,670.1,5010C662.9,5010,658,5000.4,658,4988.3z M4274.3,3365.8c1677.9-583.4,3052.1-1063.2,3056.9-1068c4.8-4.8-380.9-356.8-855.8-785.9c-474.9-429.1-860.7-783.5-855.8-790.7c4.8-9.6,725.7-848.6,1600.8-1868.4c875.1-1019.8,1593.6-1866,1596-1882.8c2.4-26.5-1429.6-1280.1-1441.7-1260.9c-4.8,4.8-672.6,783.5-1487.5,1731c-814.9,949.9-1533.3,1786.4-1596,1863.6C4226-621.7,4165.8-559,4153.7-559s-417.1-325.5-901.7-723.2c-484.6-397.8-889.6-723.2-899.2-723.2c-14.5,0-1154.8,6039.1-1207.8,6398.3c-9.7,60.3-4.8,67.5,33.7,53C1205.3,4436.2,2596.3,3951.6,4274.3,3365.8z"/></g></g>
</svg>